<svg width="23" height="16" viewBox="0 0 23 16" fill="none" xmlns="http://www.w3.org/2000/svg">
<path d="M1.71191 6.6604C1.15963 6.6604 0.711914 7.10812 0.711914 7.6604C0.711914 8.21269 1.15963 8.6604 1.71191 8.6604V6.6604ZM22.419 8.36751C22.8095 7.97698 22.8095 7.34382 22.419 6.95329L16.0551 0.589333C15.6645 0.198808 15.0314 0.198808 14.6408 0.589333C14.2503 0.979857 14.2503 1.61302 14.6408 2.00355L20.2977 7.6604L14.6408 13.3173C14.2503 13.7078 14.2503 14.3409 14.6408 14.7315C15.0314 15.122 15.6645 15.122 16.0551 14.7315L22.419 8.36751ZM1.71191 8.6604H21.7119V6.6604H1.71191V8.6604Z" fill="#2C4550"/>
</svg>
