<svg width="26" height="26" viewBox="0 0 26 26" fill="none" xmlns="http://www.w3.org/2000/svg">
<path d="M12.8135 0.720032C9.47628 0.720032 9.05964 0.735387 7.74933 0.793737C6.44106 0.855158 5.55046 1.06092 4.76734 1.36495C3.95966 1.6782 3.27379 2.09893 2.59099 2.78173C1.9082 3.46452 1.48644 4.14937 1.17422 4.95808C0.870183 5.74119 0.663399 6.6318 0.603002 7.94006C0.541581 9.25038 0.529297 9.66702 0.529297 13.0042C0.529297 16.3414 0.544652 16.7581 0.603002 18.0684C0.664423 19.3756 0.870183 20.2673 1.17422 21.0504C1.48746 21.857 1.9082 22.5439 2.59099 23.2267C3.27379 23.9085 3.95863 24.3313 4.76734 24.6435C5.55148 24.9465 6.44209 25.1543 7.74933 25.2147C9.05964 25.2761 9.47628 25.2884 12.8135 25.2884C16.1507 25.2884 16.5673 25.2731 17.8776 25.2147C19.1849 25.1533 20.0765 24.9465 20.8596 24.6435C21.6663 24.3302 22.3532 23.9085 23.036 23.2267C23.7178 22.5439 24.1405 21.8601 24.4528 21.0504C24.7558 20.2673 24.9636 19.3756 25.024 18.0684C25.0854 16.7581 25.0977 16.3414 25.0977 13.0042C25.0977 9.66702 25.0823 9.25038 25.024 7.94006C24.9626 6.63282 24.7558 5.74017 24.4528 4.95808C24.1395 4.15039 23.7178 3.46452 23.036 2.78173C22.3532 2.09893 21.6694 1.67717 20.8596 1.36495C20.0765 1.06092 19.1849 0.854134 17.8776 0.793737C16.5673 0.732316 16.1507 0.720032 12.8135 0.720032ZM12.8135 2.93119C16.0923 2.93119 16.4834 2.94757 17.7783 3.00387C18.9761 3.06017 19.6261 3.25876 20.0581 3.4287C20.6334 3.65083 21.0408 3.91699 21.4728 4.34592C21.9017 4.77586 22.1679 5.18431 22.39 5.75962C22.5579 6.19162 22.7586 6.84165 22.8128 8.03936C22.8712 9.33534 22.8845 9.72434 22.8845 13.0042C22.8845 16.2841 22.8691 16.6741 22.8087 17.9691C22.7463 19.1668 22.5467 19.8168 22.3778 20.2488C22.1485 20.8241 21.8874 21.2316 21.4575 21.6636C21.0285 22.0925 20.6139 22.3586 20.0448 22.5808C19.6148 22.7487 18.9546 22.9493 17.7569 23.0036C16.4527 23.0619 16.0688 23.0752 12.7828 23.0752C9.49573 23.0752 9.11185 23.0599 7.8087 22.9995C6.60997 22.937 5.9497 22.7374 5.51975 22.5685C4.93727 22.3392 4.53701 22.0781 4.10809 21.6482C3.67712 21.2193 3.40175 20.8047 3.18678 20.2355C3.01787 19.8056 2.81927 19.1453 2.75683 17.9476C2.71076 16.6577 2.69439 16.2595 2.69439 12.9889C2.69439 9.71718 2.71076 9.31794 2.75683 8.01275C2.81927 6.81504 3.01787 6.15579 3.18678 5.72584C3.40175 5.14234 3.67712 4.7431 4.10809 4.31213C4.53701 3.88321 4.93727 3.60682 5.51975 3.39287C5.9497 3.22294 6.59564 3.02332 7.79335 2.9619C9.09854 2.91583 9.48242 2.90048 12.7674 2.90048L12.8135 2.93119ZM12.8135 6.69629C9.32785 6.69629 6.50556 9.52166 6.50556 13.0042C6.50556 16.4899 9.33092 19.3122 12.8135 19.3122C16.2991 19.3122 19.1214 16.4868 19.1214 13.0042C19.1214 9.51858 16.2961 6.69629 12.8135 6.69629ZM12.8135 17.099C10.5511 17.099 8.71876 15.2666 8.71876 13.0042C8.71876 10.7419 10.5511 8.90949 12.8135 8.90949C15.0758 8.90949 16.9082 10.7419 16.9082 13.0042C16.9082 15.2666 15.0758 17.099 12.8135 17.099ZM20.8453 6.44754C20.8453 7.26136 20.184 7.92164 19.3712 7.92164C18.5574 7.92164 17.8971 7.26034 17.8971 6.44754C17.8971 5.63473 18.5584 4.97446 19.3712 4.97446C20.183 4.97343 20.8453 5.63473 20.8453 6.44754Z" fill="#2C4550"/>
</svg>
