<svg width="26" height="26" viewBox="0 0 26 26" fill="none" xmlns="http://www.w3.org/2000/svg">
<path d="M21.4655 21.6564H17.8273V15.9555C17.8273 14.5961 17.7997 12.8466 15.9314 12.8466C14.0345 12.8466 13.7448 14.3258 13.7448 15.8552V21.6564H10.1067V9.9332H13.6015V11.5312H13.6486C14.1369 10.6099 15.3244 9.63736 17.0984 9.63736C20.7847 9.63736 21.4665 12.0635 21.4665 15.2216L21.4655 21.6564ZM5.99759 8.32909C4.82649 8.32909 3.88573 7.38115 3.88573 6.21518C3.88573 5.05022 4.82752 4.10331 5.99759 4.10331C7.16459 4.10331 8.11048 5.05022 8.11048 6.21518C8.11048 7.38115 7.16357 8.32909 5.99759 8.32909ZM7.8218 21.6564H4.17338V9.9332H7.8218V21.6564ZM23.2856 0.720032H2.34713C1.34494 0.720032 0.53418 1.51236 0.53418 2.48998V23.5185C0.53418 24.4972 1.34494 25.2885 2.34713 25.2885H23.2825C24.2837 25.2885 25.1026 24.4972 25.1026 23.5185V2.48998C25.1026 1.51236 24.2837 0.720032 23.2825 0.720032L23.2856 0.720032Z" fill="#2C4550"/>
</svg>
