<svg width="27" height="20" viewBox="0 0 27 20" fill="none" xmlns="http://www.w3.org/2000/svg">
<path d="M25.8665 3.75271C25.7165 3.21518 25.4304 2.72544 25.0357 2.33083C24.6411 1.93622 24.1514 1.65007 23.6139 1.50006C21.5964 0.959549 13.4769 0.959549 13.4769 0.959549C13.4769 0.959549 5.37794 0.948761 3.33998 1.50006C2.80245 1.65007 2.31271 1.93622 1.9181 2.33083C1.52348 2.72544 1.23734 3.21518 1.08732 3.75271C0.70489 5.81819 0.516348 7.9149 0.524159 10.0155C0.517825 12.1081 0.70636 14.1968 1.08732 16.2545C1.23734 16.792 1.52348 17.2818 1.9181 17.6764C2.31271 18.071 2.80245 18.3571 3.33998 18.5072C5.35528 19.0487 13.4769 19.0487 13.4769 19.0487C13.4769 19.0487 21.5748 19.0487 23.6139 18.5072C24.1514 18.3571 24.6411 18.071 25.0357 17.6764C25.4304 17.2818 25.7165 16.792 25.8665 16.2545C26.2395 14.1961 26.4201 12.1074 26.4059 10.0155C26.4216 7.91564 26.241 5.81894 25.8665 3.75271ZM10.8855 13.8897V6.12943L17.6435 10.0155L10.8855 13.8897Z" fill="#2C4550"/>
</svg>
